<?xml version="1.0" encoding="utf-8"?>
<!-- Generator: Adobe Illustrator 22.0.1, SVG Export Plug-In . SVG Version: 6.00 Build 0)  -->
<svg version="1.1" id="Capa_1" xmlns="http://www.w3.org/2000/svg" xmlns:xlink="http://www.w3.org/1999/xlink" x="0px" y="0px"
	 viewBox="0 0 310.6 175.3" style="enable-background:new 0 0 310.6 175.3;" xml:space="preserve">
<style type="text/css">
	.st0{fill:#FFFFFF;}
</style>
<g>
	<polygon class="st0" points="140.3,146.2 36.8,146.2 36.8,149.2 139.8,149.2 	"/>
	<polygon class="st0" points="170.3,146.2 170.9,149.2 273.9,149.2 273.9,146.2 	"/>
</g>
<g>
	<polygon class="st0" points="130.8,136.5 36.8,136.5 36.8,142.5 136.9,142.5 	"/>
	<polygon class="st0" points="179.8,136.5 173.7,142.5 273.9,142.5 273.9,136.5 	"/>
</g>
<polygon class="st0" points="161.2,132.8 155.3,120.8 149.4,132.8 136.1,134.8 145.7,144.1 143.4,157.3 155.3,151.1 167.2,157.3 
	164.9,144.1 174.5,134.8 "/>
<g>
	<g>
		<path class="st0" d="M91.3,57.6h-8.4v-36h-0.1l-8,36h-8.8l-7.9-36h-0.1v36h-8.4V14.5h13.1l7.8,34h0.1l7.7-34h13V57.6z"/>
		<path class="st0" d="M106.1,57.6h-9.5l15.4-43.1h10.4l15.2,43.1h-9.8l-2.8-8.9h-15.9L106.1,57.6z M111.5,41.3h11l-5.3-17H117
			L111.5,41.3z"/>
		<path class="st0" d="M142.3,14.5H164c11.5,0,13.6,8.5,13.6,12.2c0,4.7-2.4,8.8-6.7,10.3c3.5,1.6,5.5,2.9,5.5,10.9
			c0,6.3,0,7.9,1.9,8.6v1.1h-10c-0.6-2-1-4.3-1-8.7c0-5.9-0.4-8.2-7-8.2h-9.3v16.9h-8.8V14.5z M161.6,33.5c4.7,0,7-1.6,7-5.9
			c0-2.3-1-5.6-6.3-5.6h-11.2v11.5H161.6z"/>
		<path class="st0" d="M211.1,28.6c-0.7-2.6-2.1-7.4-9.5-7.4c-4.3,0-10.7,2.9-10.7,15.1c0,7.7,3.1,14.7,10.7,14.7
			c5,0,8.5-2.8,9.5-8.1h9c-1.8,9.4-7.9,15.9-18.7,15.9c-11.5,0-19.7-7.7-19.7-22.6c0-15.1,8.7-22.7,19.8-22.7
			c12.9,0,18.1,8.9,18.6,15.2H211.1z"/>
		<path class="st0" d="M229.6,57.6h-9.5l15.4-43.1h10.4l15.2,43.1h-9.8l-2.8-8.9h-15.9L229.6,57.6z M235,41.3h11l-5.3-17h-0.1
			L235,41.3z"/>
	</g>
	<g>
		<path class="st0" d="M36.8,73.4h20.9c10.6,0,13.3,6.6,13.3,11c0,6.2-3.5,7.9-5.3,8.8c5.3,2,6.7,6.2,6.7,10.4
			c0,3.4-1.4,6.7-3.7,8.9c-2.5,2.4-4.8,3.9-13.6,3.9H36.8V73.4z M45.4,90.3H56c3.5,0,6.4-1.4,6.4-4.8c0-3.5-2.5-4.6-6.6-4.6H45.4
			V90.3z M45.4,109h11c4.4,0,6.9-1.9,6.9-6.3c0-3.8-3.2-5.2-6.5-5.2H45.4V109z"/>
		<path class="st0" d="M86.1,108.7h21.4v7.8H77.1V73.4h9V108.7z"/>
		<path class="st0" d="M119.9,116.5h-9.5l15.4-43.1h10.4l15.2,43.1h-9.8l-2.8-8.9h-15.9L119.9,116.5z M125.3,100.2h11l-5.3-17h-0.1
			L125.3,100.2z"/>
		<path class="st0" d="M182.3,73.4h8.4v43.1h-9l-17.6-30.7H164v30.7h-8.4V73.4h9.5l17.1,30h0.1V73.4z"/>
		<path class="st0" d="M223.9,87.5c-0.7-2.6-2.1-7.4-9.5-7.4c-4.3,0-10.7,2.9-10.7,15.1c0,7.7,3.1,14.7,10.7,14.7
			c5,0,8.5-2.8,9.5-8.1h9c-1.8,9.4-7.9,15.9-18.7,15.9c-11.5,0-19.7-7.7-19.7-22.6c0-15.1,8.7-22.7,19.8-22.7
			c12.9,0,18.1,8.9,18.6,15.2H223.9z"/>
		<path class="st0" d="M242.4,116.5h-9.5l15.4-43.1h10.4l15.2,43.1h-9.8l-2.8-8.9h-15.9L242.4,116.5z M247.8,100.2h11l-5.3-17h-0.1
			L247.8,100.2z"/>
	</g>
</g>
</svg>
